<?xml version="1.0" encoding="UTF-8" standalone="no"?><svg xmlns="http://www.w3.org/2000/svg" xmlns:xlink="http://www.w3.org/1999/xlink" contentScriptType="application/ecmascript" contentStyleType="text/css" height="1687px" preserveAspectRatio="none" style="width:1028px;height:1687px;" version="1.1" viewBox="0 0 1028 1687" width="1028px" zoomAndPan="magnify"><defs><filter height="300%" id="fsrip3i3mxenr" width="300%" x="-1" y="-1"><feGaussianBlur result="blurOut" stdDeviation="2.0"/><feColorMatrix in="blurOut" result="blurOut2" type="matrix" values="0 0 0 0 0 0 0 0 0 0 0 0 0 0 0 0 0 0 .4 0"/><feOffset dx="4.0" dy="4.0" in="blurOut2" result="blurOut3"/><feBlend in="SourceGraphic" in2="blurOut3" mode="normal"/></filter></defs><g><rect fill="#DDDDDD" height="1682.5781" style="stroke: #A80036; stroke-width: 1.0;" width="161.5" x="4" y="4"/><text fill="#000000" font-family="sans-serif" font-size="13" font-weight="bold" lengthAdjust="spacingAndGlyphs" textLength="59" x="55.25" y="17.4951">User( 2-n)</text><rect fill="#DDDDDD" height="1682.5781" style="stroke: #A80036; stroke-width: 1.0;" width="177.5" x="314" y="4"/><text fill="#000000" font-family="sans-serif" font-size="13" font-weight="bold" lengthAdjust="spacingAndGlyphs" textLength="88" x="358.75" y="17.4951">Room Creator</text><rect fill="#FFFFFF" filter="url(#fsrip3i3mxenr)" height="374.5156" style="stroke: #A80036; stroke-width: 1.0;" width="10" x="113.5" y="876.2891"/><rect fill="#FFFFFF" filter="url(#fsrip3i3mxenr)" height="36.3516" style="stroke: #A80036; stroke-width: 1.0;" width="10" x="439.5" y="171.3125"/><rect fill="#FFFFFF" filter="url(#fsrip3i3mxenr)" height="404.8672" style="stroke: #A80036; stroke-width: 1.0;" width="10" x="439.5" y="303.3672"/><rect fill="#FFFFFF" filter="url(#fsrip3i3mxenr)" height="214.1094" style="stroke: #A80036; stroke-width: 1.0;" width="10" x="439.5" y="1331.5078"/><rect fill="#FFFFFF" filter="url(#fsrip3i3mxenr)" height="36.3516" style="stroke: #A80036; stroke-width: 1.0;" width="10" x="715.5" y="171.3125"/><rect fill="#FFFFFF" filter="url(#fsrip3i3mxenr)" height="338.1641" style="stroke: #A80036; stroke-width: 1.0;" width="10" x="715.5" y="303.3672"/><rect fill="#FFFFFF" filter="url(#fsrip3i3mxenr)" height="602.625" style="stroke: #A80036; stroke-width: 1.0;" width="10" x="715.5" y="876.2891"/><line style="stroke: #A80036; stroke-width: 1.0;" x1="29" x2="29" y1="108.9609" y2="223.0156"/><line style="stroke: #A80036; stroke-width: 1.0; stroke-dasharray: 1.0,4.0;" x1="29" x2="29" y1="223.0156" y2="251.0156"/><line style="stroke: #A80036; stroke-width: 1.0;" x1="29" x2="29" y1="251.0156" y2="723.5859"/><line style="stroke: #A80036; stroke-width: 1.0; stroke-dasharray: 1.0,4.0;" x1="29" x2="29" y1="723.5859" y2="751.5859"/><line style="stroke: #A80036; stroke-width: 1.0;" x1="29" x2="29" y1="751.5859" y2="795.9375"/><line style="stroke: #A80036; stroke-width: 1.0; stroke-dasharray: 1.0,4.0;" x1="29" x2="29" y1="795.9375" y2="823.9375"/><line style="stroke: #A80036; stroke-width: 1.0;" x1="29" x2="29" y1="823.9375" y2="1560.9688"/><line style="stroke: #A80036; stroke-width: 1.0; stroke-dasharray: 1.0,4.0;" x1="29" x2="29" y1="1560.9688" y2="1588.9688"/><line style="stroke: #A80036; stroke-width: 1.0;" x1="29" x2="29" y1="1588.9688" y2="1598.9688"/><line style="stroke: #A80036; stroke-width: 1.0;" x1="118.5" x2="118.5" y1="108.9609" y2="223.0156"/><line style="stroke: #A80036; stroke-width: 1.0; stroke-dasharray: 1.0,4.0;" x1="118.5" x2="118.5" y1="223.0156" y2="251.0156"/><line style="stroke: #A80036; stroke-width: 1.0;" x1="118.5" x2="118.5" y1="251.0156" y2="723.5859"/><line style="stroke: #A80036; stroke-width: 1.0; stroke-dasharray: 1.0,4.0;" x1="118.5" x2="118.5" y1="723.5859" y2="751.5859"/><line style="stroke: #A80036; stroke-width: 1.0;" x1="118.5" x2="118.5" y1="751.5859" y2="795.9375"/><line style="stroke: #A80036; stroke-width: 1.0; stroke-dasharray: 1.0,4.0;" x1="118.5" x2="118.5" y1="795.9375" y2="823.9375"/><line style="stroke: #A80036; stroke-width: 1.0;" x1="118.5" x2="118.5" y1="823.9375" y2="1560.9688"/><line style="stroke: #A80036; stroke-width: 1.0; stroke-dasharray: 1.0,4.0;" x1="118.5" x2="118.5" y1="1560.9688" y2="1588.9688"/><line style="stroke: #A80036; stroke-width: 1.0;" x1="118.5" x2="118.5" y1="1588.9688" y2="1598.9688"/><line style="stroke: #A80036; stroke-width: 1.0;" x1="335" x2="335" y1="108.9609" y2="223.0156"/><line style="stroke: #A80036; stroke-width: 1.0; stroke-dasharray: 1.0,4.0;" x1="335" x2="335" y1="223.0156" y2="251.0156"/><line style="stroke: #A80036; stroke-width: 1.0;" x1="335" x2="335" y1="251.0156" y2="723.5859"/><line style="stroke: #A80036; stroke-width: 1.0; stroke-dasharray: 1.0,4.0;" x1="335" x2="335" y1="723.5859" y2="751.5859"/><line style="stroke: #A80036; stroke-width: 1.0;" x1="335" x2="335" y1="751.5859" y2="795.9375"/><line style="stroke: #A80036; stroke-width: 1.0; stroke-dasharray: 1.0,4.0;" x1="335" x2="335" y1="795.9375" y2="823.9375"/><line style="stroke: #A80036; stroke-width: 1.0;" x1="335" x2="335" y1="823.9375" y2="1560.9688"/><line style="stroke: #A80036; stroke-width: 1.0; stroke-dasharray: 1.0,4.0;" x1="335" x2="335" y1="1560.9688" y2="1588.9688"/><line style="stroke: #A80036; stroke-width: 1.0;" x1="335" x2="335" y1="1588.9688" y2="1598.9688"/><line style="stroke: #A80036; stroke-width: 1.0;" x1="444.5" x2="444.5" y1="108.9609" y2="223.0156"/><line style="stroke: #A80036; stroke-width: 1.0; stroke-dasharray: 1.0,4.0;" x1="444.5" x2="444.5" y1="223.0156" y2="251.0156"/><line style="stroke: #A80036; stroke-width: 1.0;" x1="444.5" x2="444.5" y1="251.0156" y2="723.5859"/><line style="stroke: #A80036; stroke-width: 1.0; stroke-dasharray: 1.0,4.0;" x1="444.5" x2="444.5" y1="723.5859" y2="751.5859"/><line style="stroke: #A80036; stroke-width: 1.0;" x1="444.5" x2="444.5" y1="751.5859" y2="795.9375"/><line style="stroke: #A80036; stroke-width: 1.0; stroke-dasharray: 1.0,4.0;" x1="444.5" x2="444.5" y1="795.9375" y2="823.9375"/><line style="stroke: #A80036; stroke-width: 1.0;" x1="444.5" x2="444.5" y1="823.9375" y2="1560.9688"/><line style="stroke: #A80036; stroke-width: 1.0; stroke-dasharray: 1.0,4.0;" x1="444.5" x2="444.5" y1="1560.9688" y2="1588.9688"/><line style="stroke: #A80036; stroke-width: 1.0;" x1="444.5" x2="444.5" y1="1588.9688" y2="1598.9688"/><line style="stroke: #A80036; stroke-width: 1.0;" x1="720.5" x2="720.5" y1="108.9609" y2="223.0156"/><line style="stroke: #A80036; stroke-width: 1.0; stroke-dasharray: 1.0,4.0;" x1="720.5" x2="720.5" y1="223.0156" y2="251.0156"/><line style="stroke: #A80036; stroke-width: 1.0;" x1="720.5" x2="720.5" y1="251.0156" y2="723.5859"/><line style="stroke: #A80036; stroke-width: 1.0; stroke-dasharray: 1.0,4.0;" x1="720.5" x2="720.5" y1="723.5859" y2="751.5859"/><line style="stroke: #A80036; stroke-width: 1.0;" x1="720.5" x2="720.5" y1="751.5859" y2="795.9375"/><line style="stroke: #A80036; stroke-width: 1.0; stroke-dasharray: 1.0,4.0;" x1="720.5" x2="720.5" y1="795.9375" y2="823.9375"/><line style="stroke: #A80036; stroke-width: 1.0;" x1="720.5" x2="720.5" y1="823.9375" y2="1560.9688"/><line style="stroke: #A80036; stroke-width: 1.0; stroke-dasharray: 1.0,4.0;" x1="720.5" x2="720.5" y1="1560.9688" y2="1588.9688"/><line style="stroke: #A80036; stroke-width: 1.0;" x1="720.5" x2="720.5" y1="1588.9688" y2="1598.9688"/><line style="stroke: #A80036; stroke-width: 1.0;" x1="950" x2="950" y1="108.9609" y2="223.0156"/><line style="stroke: #A80036; stroke-width: 1.0; stroke-dasharray: 1.0,4.0;" x1="950" x2="950" y1="223.0156" y2="251.0156"/><line style="stroke: #A80036; stroke-width: 1.0;" x1="950" x2="950" y1="251.0156" y2="723.5859"/><line style="stroke: #A80036; stroke-width: 1.0; stroke-dasharray: 1.0,4.0;" x1="950" x2="950" y1="723.5859" y2="751.5859"/><line style="stroke: #A80036; stroke-width: 1.0;" x1="950" x2="950" y1="751.5859" y2="795.9375"/><line style="stroke: #A80036; stroke-width: 1.0; stroke-dasharray: 1.0,4.0;" x1="950" x2="950" y1="795.9375" y2="823.9375"/><line style="stroke: #A80036; stroke-width: 1.0;" x1="950" x2="950" y1="823.9375" y2="1560.9688"/><line style="stroke: #A80036; stroke-width: 1.0; stroke-dasharray: 1.0,4.0;" x1="950" x2="950" y1="1560.9688" y2="1588.9688"/><line style="stroke: #A80036; stroke-width: 1.0;" x1="950" x2="950" y1="1588.9688" y2="1598.9688"/><text fill="#000000" font-family="sans-serif" font-size="14" lengthAdjust="spacingAndGlyphs" textLength="37" x="8" y="105.8848">User2</text><ellipse cx="29.5" cy="34.3516" fill="#FEFECE" filter="url(#fsrip3i3mxenr)" rx="8" ry="8" style="stroke: #A80036; stroke-width: 2.0;"/><path d="M29.5,42.3516 L29.5,69.3516 M16.5,50.3516 L42.5,50.3516 M29.5,69.3516 L16.5,84.3516 M29.5,69.3516 L42.5,84.3516 " fill="#FEFECE" filter="url(#fsrip3i3mxenr)" style="stroke: #A80036; stroke-width: 2.0;"/><text fill="#000000" font-family="sans-serif" font-size="14" lengthAdjust="spacingAndGlyphs" textLength="37" x="8" y="1612.502">User2</text><ellipse cx="29.5" cy="1625.5781" fill="#FEFECE" filter="url(#fsrip3i3mxenr)" rx="8" ry="8" style="stroke: #A80036; stroke-width: 2.0;"/><path d="M29.5,1633.5781 L29.5,1660.5781 M16.5,1641.5781 L42.5,1641.5781 M29.5,1660.5781 L16.5,1675.5781 M29.5,1660.5781 L42.5,1675.5781 " fill="#FEFECE" filter="url(#fsrip3i3mxenr)" style="stroke: #A80036; stroke-width: 2.0;"/><rect fill="#FEFECE" filter="url(#fsrip3i3mxenr)" height="49.2188" style="stroke: #A80036; stroke-width: 1.5;" width="82" x="75.5" y="54.7422"/><text fill="#000000" font-family="sans-serif" font-size="14" lengthAdjust="spacingAndGlyphs" textLength="65" x="84" y="76.2754">Browser.js</text><text fill="#000000" font-family="sans-serif" font-size="14" lengthAdjust="spacingAndGlyphs" textLength="68" x="82.5" y="93.8848">&lt;&lt;Client&gt;&gt;</text><rect fill="#FEFECE" filter="url(#fsrip3i3mxenr)" height="49.2188" style="stroke: #A80036; stroke-width: 1.5;" width="82" x="75.5" y="1597.9688"/><text fill="#000000" font-family="sans-serif" font-size="14" lengthAdjust="spacingAndGlyphs" textLength="65" x="84" y="1619.502">Browser.js</text><text fill="#000000" font-family="sans-serif" font-size="14" lengthAdjust="spacingAndGlyphs" textLength="68" x="82.5" y="1637.1113">&lt;&lt;Client&gt;&gt;</text><text fill="#000000" font-family="sans-serif" font-size="14" lengthAdjust="spacingAndGlyphs" textLength="29" x="318" y="105.8848">User</text><ellipse cx="335.5" cy="34.3516" fill="#FEFECE" filter="url(#fsrip3i3mxenr)" rx="8" ry="8" style="stroke: #A80036; stroke-width: 2.0;"/><path d="M335.5,42.3516 L335.5,69.3516 M322.5,50.3516 L348.5,50.3516 M335.5,69.3516 L322.5,84.3516 M335.5,69.3516 L348.5,84.3516 " fill="#FEFECE" filter="url(#fsrip3i3mxenr)" style="stroke: #A80036; stroke-width: 2.0;"/><text fill="#000000" font-family="sans-serif" font-size="14" lengthAdjust="spacingAndGlyphs" textLength="29" x="318" y="1612.502">User</text><ellipse cx="335.5" cy="1625.5781" fill="#FEFECE" filter="url(#fsrip3i3mxenr)" rx="8" ry="8" style="stroke: #A80036; stroke-width: 2.0;"/><path d="M335.5,1633.5781 L335.5,1660.5781 M322.5,1641.5781 L348.5,1641.5781 M335.5,1660.5781 L322.5,1675.5781 M335.5,1660.5781 L348.5,1675.5781 " fill="#FEFECE" filter="url(#fsrip3i3mxenr)" style="stroke: #A80036; stroke-width: 2.0;"/><rect fill="#FEFECE" filter="url(#fsrip3i3mxenr)" height="49.2188" style="stroke: #A80036; stroke-width: 1.5;" width="82" x="401.5" y="54.7422"/><text fill="#000000" font-family="sans-serif" font-size="14" lengthAdjust="spacingAndGlyphs" textLength="65" x="410" y="76.2754">Browser.js</text><text fill="#000000" font-family="sans-serif" font-size="14" lengthAdjust="spacingAndGlyphs" textLength="68" x="408.5" y="93.8848">&lt;&lt;Client&gt;&gt;</text><rect fill="#FEFECE" filter="url(#fsrip3i3mxenr)" height="49.2188" style="stroke: #A80036; stroke-width: 1.5;" width="82" x="401.5" y="1597.9688"/><text fill="#000000" font-family="sans-serif" font-size="14" lengthAdjust="spacingAndGlyphs" textLength="65" x="410" y="1619.502">Browser.js</text><text fill="#000000" font-family="sans-serif" font-size="14" lengthAdjust="spacingAndGlyphs" textLength="68" x="408.5" y="1637.1113">&lt;&lt;Client&gt;&gt;</text><rect fill="#FEFECE" filter="url(#fsrip3i3mxenr)" height="49.2188" style="stroke: #A80036; stroke-width: 1.5;" width="118" x="659.5" y="54.7422"/><text fill="#000000" font-family="sans-serif" font-size="14" lengthAdjust="spacingAndGlyphs" textLength="33" x="702" y="76.2754">Node</text><text fill="#000000" font-family="sans-serif" font-size="14" lengthAdjust="spacingAndGlyphs" textLength="104" x="666.5" y="93.8848">&lt;&lt;App-Server&gt;&gt;</text><rect fill="#FEFECE" filter="url(#fsrip3i3mxenr)" height="49.2188" style="stroke: #A80036; stroke-width: 1.5;" width="118" x="659.5" y="1597.9688"/><text fill="#000000" font-family="sans-serif" font-size="14" lengthAdjust="spacingAndGlyphs" textLength="33" x="702" y="1619.502">Node</text><text fill="#000000" font-family="sans-serif" font-size="14" lengthAdjust="spacingAndGlyphs" textLength="104" x="666.5" y="1637.1113">&lt;&lt;App-Server&gt;&gt;</text><rect fill="#FEFECE" filter="url(#fsrip3i3mxenr)" height="49.2188" style="stroke: #A80036; stroke-width: 1.5;" width="131" x="883" y="54.7422"/><text fill="#000000" font-family="sans-serif" font-size="14" lengthAdjust="spacingAndGlyphs" textLength="50" x="923.5" y="76.2754">Kurento</text><text fill="#000000" font-family="sans-serif" font-size="14" lengthAdjust="spacingAndGlyphs" textLength="117" x="890" y="93.8848">&lt;&lt;Media-Server&gt;&gt;</text><rect fill="#FEFECE" filter="url(#fsrip3i3mxenr)" height="49.2188" style="stroke: #A80036; stroke-width: 1.5;" width="131" x="883" y="1597.9688"/><text fill="#000000" font-family="sans-serif" font-size="14" lengthAdjust="spacingAndGlyphs" textLength="50" x="923.5" y="1619.502">Kurento</text><text fill="#000000" font-family="sans-serif" font-size="14" lengthAdjust="spacingAndGlyphs" textLength="117" x="890" y="1637.1113">&lt;&lt;Media-Server&gt;&gt;</text><rect fill="#FFFFFF" filter="url(#fsrip3i3mxenr)" height="374.5156" style="stroke: #A80036; stroke-width: 1.0;" width="10" x="113.5" y="876.2891"/><rect fill="#FFFFFF" filter="url(#fsrip3i3mxenr)" height="36.3516" style="stroke: #A80036; stroke-width: 1.0;" width="10" x="439.5" y="171.3125"/><rect fill="#FFFFFF" filter="url(#fsrip3i3mxenr)" height="404.8672" style="stroke: #A80036; stroke-width: 1.0;" width="10" x="439.5" y="303.3672"/><rect fill="#FFFFFF" filter="url(#fsrip3i3mxenr)" height="214.1094" style="stroke: #A80036; stroke-width: 1.0;" width="10" x="439.5" y="1331.5078"/><rect fill="#FFFFFF" filter="url(#fsrip3i3mxenr)" height="36.3516" style="stroke: #A80036; stroke-width: 1.0;" width="10" x="715.5" y="171.3125"/><rect fill="#FFFFFF" filter="url(#fsrip3i3mxenr)" height="338.1641" style="stroke: #A80036; stroke-width: 1.0;" width="10" x="715.5" y="303.3672"/><rect fill="#FFFFFF" filter="url(#fsrip3i3mxenr)" height="602.625" style="stroke: #A80036; stroke-width: 1.0;" width="10" x="715.5" y="876.2891"/><polygon fill="#A80036" points="432.5,136.9609,442.5,140.9609,432.5,144.9609,436.5,140.9609" style="stroke: #A80036; stroke-width: 1.0;"/><line style="stroke: #A80036; stroke-width: 1.0;" x1="335.5" x2="438.5" y1="140.9609" y2="140.9609"/><text fill="#000000" font-family="sans-serif" font-size="13" lengthAdjust="spacingAndGlyphs" textLength="85" x="342.5" y="136.4561">hits homepage</text><polygon fill="#A80036" points="703.5,167.3125,713.5,171.3125,703.5,175.3125,707.5,171.3125" style="stroke: #A80036; stroke-width: 1.0;"/><line style="stroke: #A80036; stroke-width: 1.0;" x1="449.5" x2="709.5" y1="171.3125" y2="171.3125"/><text fill="#000000" font-family="sans-serif" font-size="13" lengthAdjust="spacingAndGlyphs" textLength="68" x="456.5" y="166.8076">io.connect()</text><line style="stroke: #A80036; stroke-width: 1.0;" x1="725.5" x2="767.5" y1="207.0156" y2="207.0156"/><line style="stroke: #A80036; stroke-width: 1.0;" x1="767.5" x2="767.5" y1="207.0156" y2="220.0156"/><line style="stroke: #A80036; stroke-width: 1.0;" x1="720.5" x2="767.5" y1="220.0156" y2="220.0156"/><polygon fill="#A80036" points="730.5,216.0156,720.5,220.0156,730.5,224.0156,726.5,220.0156" style="stroke: #A80036; stroke-width: 1.0;"/><text fill="#000000" font-family="sans-serif" font-size="13" lengthAdjust="spacingAndGlyphs" textLength="86" x="732.5" y="202.1592">new User(io.id)</text><polygon fill="#A80036" points="432.5,269.0156,442.5,273.0156,432.5,277.0156,436.5,273.0156" style="stroke: #A80036; stroke-width: 1.0;"/><line style="stroke: #A80036; stroke-width: 1.0;" x1="335.5" x2="438.5" y1="273.0156" y2="273.0156"/><text fill="#000000" font-family="sans-serif" font-size="13" lengthAdjust="spacingAndGlyphs" textLength="76" x="342.5" y="268.5107">creates room</text><polygon fill="#A80036" points="703.5,299.3672,713.5,303.3672,703.5,307.3672,707.5,303.3672" style="stroke: #A80036; stroke-width: 1.0;"/><line style="stroke: #A80036; stroke-width: 1.0;" x1="449.5" x2="709.5" y1="303.3672" y2="303.3672"/><text fill="#000000" font-family="sans-serif" font-size="13" lengthAdjust="spacingAndGlyphs" textLength="192" x="456.5" y="298.8623">io.emit('createRoom', roomName)</text><line style="stroke: #A80036; stroke-width: 1.0;" x1="725.5" x2="767.5" y1="334.0703" y2="334.0703"/><line style="stroke: #A80036; stroke-width: 1.0;" x1="767.5" x2="767.5" y1="334.0703" y2="347.0703"/><line style="stroke: #A80036; stroke-width: 1.0;" x1="726.5" x2="767.5" y1="347.0703" y2="347.0703"/><polygon fill="#A80036" points="736.5,343.0703,726.5,347.0703,736.5,351.0703,732.5,347.0703" style="stroke: #A80036; stroke-width: 1.0;"/><text fill="#000000" font-family="sans-serif" font-size="13" lengthAdjust="spacingAndGlyphs" textLength="132" x="732.5" y="329.2139">new Room(roomName)</text><polygon fill="#A80036" points="938.5,373.0703,948.5,377.0703,938.5,381.0703,942.5,377.0703" style="stroke: #A80036; stroke-width: 1.0;"/><line style="stroke: #A80036; stroke-width: 1.0;" x1="725.5" x2="944.5" y1="377.0703" y2="377.0703"/><text fill="#000000" font-family="sans-serif" font-size="13" lengthAdjust="spacingAndGlyphs" textLength="119" x="732.5" y="372.5654">create Mediapipeline</text><line style="stroke: #A80036; stroke-width: 1.0;" x1="725.5" x2="767.5" y1="407.7734" y2="407.7734"/><line style="stroke: #A80036; stroke-width: 1.0;" x1="767.5" x2="767.5" y1="407.7734" y2="420.7734"/><line style="stroke: #A80036; stroke-width: 1.0;" x1="726.5" x2="767.5" y1="420.7734" y2="420.7734"/><polygon fill="#A80036" points="736.5,416.7734,726.5,420.7734,736.5,424.7734,732.5,420.7734" style="stroke: #A80036; stroke-width: 1.0;"/><text fill="#000000" font-family="sans-serif" font-size="13" lengthAdjust="spacingAndGlyphs" textLength="206" x="732.5" y="402.917">create WebRtcEndpoint on Pipeline</text><line style="stroke: #A80036; stroke-width: 1.0;" x1="725.5" x2="767.5" y1="451.125" y2="451.125"/><line style="stroke: #A80036; stroke-width: 1.0;" x1="767.5" x2="767.5" y1="451.125" y2="464.125"/><line style="stroke: #A80036; stroke-width: 1.0;" x1="726.5" x2="767.5" y1="464.125" y2="464.125"/><polygon fill="#A80036" points="736.5,460.125,726.5,464.125,736.5,468.125,732.5,464.125" style="stroke: #A80036; stroke-width: 1.0;"/><text fill="#000000" font-family="sans-serif" font-size="13" lengthAdjust="spacingAndGlyphs" textLength="187" x="732.5" y="446.2686">create Ice Candidate on Pipeline</text><polygon fill="#A80036" points="460.5,490.125,450.5,494.125,460.5,498.125,456.5,494.125" style="stroke: #A80036; stroke-width: 1.0;"/><line style="stroke: #A80036; stroke-width: 1.0;" x1="454.5" x2="714.5" y1="494.125" y2="494.125"/><text fill="#000000" font-family="sans-serif" font-size="13" lengthAdjust="spacingAndGlyphs" textLength="218" x="466.5" y="489.6201">io.emit('sendIceCandidate', candidate)</text><line style="stroke: #A80036; stroke-width: 1.0;" x1="449.5" x2="491.5" y1="524.8281" y2="524.8281"/><line style="stroke: #A80036; stroke-width: 1.0;" x1="491.5" x2="491.5" y1="524.8281" y2="537.8281"/><line style="stroke: #A80036; stroke-width: 1.0;" x1="450.5" x2="491.5" y1="537.8281" y2="537.8281"/><polygon fill="#A80036" points="460.5,533.8281,450.5,537.8281,460.5,541.8281,456.5,537.8281" style="stroke: #A80036; stroke-width: 1.0;"/><text fill="#000000" font-family="sans-serif" font-size="13" lengthAdjust="spacingAndGlyphs" textLength="193" x="456.5" y="519.9717">create send-only WebRtc-Stream</text><line style="stroke: #A80036; stroke-width: 1.0;" x1="449.5" x2="491.5" y1="568.1797" y2="568.1797"/><line style="stroke: #A80036; stroke-width: 1.0;" x1="491.5" x2="491.5" y1="568.1797" y2="581.1797"/><line style="stroke: #A80036; stroke-width: 1.0;" x1="450.5" x2="491.5" y1="581.1797" y2="581.1797"/><polygon fill="#A80036" points="460.5,577.1797,450.5,581.1797,460.5,585.1797,456.5,581.1797" style="stroke: #A80036; stroke-width: 1.0;"/><text fill="#000000" font-family="sans-serif" font-size="13" lengthAdjust="spacingAndGlyphs" textLength="98" x="456.5" y="563.3232">create SDP Offer</text><polygon fill="#A80036" points="703.5,607.1797,713.5,611.1797,703.5,615.1797,707.5,611.1797" style="stroke: #A80036; stroke-width: 1.0;"/><line style="stroke: #A80036; stroke-width: 1.0;" x1="449.5" x2="709.5" y1="611.1797" y2="611.1797"/><text fill="#000000" font-family="sans-serif" font-size="13" lengthAdjust="spacingAndGlyphs" textLength="185" x="456.5" y="606.6748">io.emit('sendSdpOffer', sdpOffer)</text><polygon fill="#A80036" points="938.5,637.5313,948.5,641.5313,938.5,645.5313,942.5,641.5313" style="stroke: #A80036; stroke-width: 1.0;"/><line style="stroke: #A80036; stroke-width: 1.0;" x1="720.5" x2="944.5" y1="641.5313" y2="641.5313"/><text fill="#000000" font-family="sans-serif" font-size="13" lengthAdjust="spacingAndGlyphs" textLength="126" x="727.5" y="637.0264">register Ice Candidate</text><polygon fill="#008000" points="938.5,667.8828,948.5,671.8828,938.5,675.8828,942.5,671.8828" style="stroke: #008000; stroke-width: 1.0;"/><line style="stroke: #008000; stroke-width: 1.0;" x1="449.5" x2="944.5" y1="671.8828" y2="671.8828"/><text fill="#000000" font-family="sans-serif" font-size="13" lengthAdjust="spacingAndGlyphs" textLength="73" x="456.5" y="667.3779">Media Traffic</text><line style="stroke: #A80036; stroke-width: 1.0;" x1="449.5" x2="491.5" y1="707.5859" y2="707.5859"/><line style="stroke: #A80036; stroke-width: 1.0;" x1="491.5" x2="491.5" y1="707.5859" y2="720.5859"/><line style="stroke: #A80036; stroke-width: 1.0;" x1="444.5" x2="491.5" y1="720.5859" y2="720.5859"/><polygon fill="#A80036" points="454.5,716.5859,444.5,720.5859,454.5,724.5859,450.5,720.5859" style="stroke: #A80036; stroke-width: 1.0;"/><text fill="#000000" font-family="sans-serif" font-size="13" lengthAdjust="spacingAndGlyphs" textLength="105" x="456.5" y="702.7295">display local video</text><rect fill="#EEEEEE" filter="url(#fsrip3i3mxenr)" height="3" style="stroke: #EEEEEE; stroke-width: 1.0;" width="1020" x="3" y="772.7617"/><line style="stroke: #000000; stroke-width: 1.0;" x1="3" x2="1023" y1="772.7617" y2="772.7617"/><line style="stroke: #000000; stroke-width: 1.0;" x1="3" x2="1023" y1="775.7617" y2="775.7617"/><rect fill="#EEEEEE" filter="url(#fsrip3i3mxenr)" height="24.3516" style="stroke: #000000; stroke-width: 2.0;" width="149" x="438.5" y="761.5859"/><text fill="#000000" font-family="sans-serif" font-size="13" font-weight="bold" lengthAdjust="spacingAndGlyphs" textLength="135" x="444.5" y="779.0811">Other User Hits Room</text><polygon fill="#A80036" points="106.5,841.9375,116.5,845.9375,106.5,849.9375,110.5,845.9375" style="stroke: #A80036; stroke-width: 1.0;"/><line style="stroke: #A80036; stroke-width: 1.0;" x1="29.5" x2="112.5" y1="845.9375" y2="845.9375"/><text fill="#000000" font-family="sans-serif" font-size="13" lengthAdjust="spacingAndGlyphs" textLength="65" x="36.5" y="841.4326">enters URL</text><polygon fill="#A80036" points="703.5,872.2891,713.5,876.2891,703.5,880.2891,707.5,876.2891" style="stroke: #A80036; stroke-width: 1.0;"/><line style="stroke: #A80036; stroke-width: 1.0;" x1="123.5" x2="709.5" y1="876.2891" y2="876.2891"/><text fill="#000000" font-family="sans-serif" font-size="13" lengthAdjust="spacingAndGlyphs" textLength="222" x="130.5" y="871.7842">io.emit('joinRoom', roomNameFromUrl)</text><line style="stroke: #A80036; stroke-width: 1.0;" x1="725.5" x2="767.5" y1="906.9922" y2="906.9922"/><line style="stroke: #A80036; stroke-width: 1.0;" x1="767.5" x2="767.5" y1="906.9922" y2="919.9922"/><line style="stroke: #A80036; stroke-width: 1.0;" x1="726.5" x2="767.5" y1="919.9922" y2="919.9922"/><polygon fill="#A80036" points="736.5,915.9922,726.5,919.9922,736.5,923.9922,732.5,919.9922" style="stroke: #A80036; stroke-width: 1.0;"/><text fill="#000000" font-family="sans-serif" font-size="13" lengthAdjust="spacingAndGlyphs" textLength="169" x="732.5" y="902.1357">getRoomPipeline(roomName)</text><line style="stroke: #A80036; stroke-width: 1.0;" x1="725.5" x2="767.5" y1="950.3438" y2="950.3438"/><line style="stroke: #A80036; stroke-width: 1.0;" x1="767.5" x2="767.5" y1="950.3438" y2="963.3438"/><line style="stroke: #A80036; stroke-width: 1.0;" x1="726.5" x2="767.5" y1="963.3438" y2="963.3438"/><polygon fill="#A80036" points="736.5,959.3438,726.5,963.3438,736.5,967.3438,732.5,963.3438" style="stroke: #A80036; stroke-width: 1.0;"/><text fill="#000000" font-family="sans-serif" font-size="13" lengthAdjust="spacingAndGlyphs" textLength="206" x="732.5" y="945.4873">create WebRtcEndpoint on Pipeline</text><line style="stroke: #A80036; stroke-width: 1.0;" x1="725.5" x2="767.5" y1="993.6953" y2="993.6953"/><line style="stroke: #A80036; stroke-width: 1.0;" x1="767.5" x2="767.5" y1="993.6953" y2="1006.6953"/><line style="stroke: #A80036; stroke-width: 1.0;" x1="726.5" x2="767.5" y1="1006.6953" y2="1006.6953"/><polygon fill="#A80036" points="736.5,1002.6953,726.5,1006.6953,736.5,1010.6953,732.5,1006.6953" style="stroke: #A80036; stroke-width: 1.0;"/><text fill="#000000" font-family="sans-serif" font-size="13" lengthAdjust="spacingAndGlyphs" textLength="187" x="732.5" y="988.8389">create Ice Candidate on Pipeline</text><polygon fill="#A80036" points="134.5,1032.6953,124.5,1036.6953,134.5,1040.6953,130.5,1036.6953" style="stroke: #A80036; stroke-width: 1.0;"/><line style="stroke: #A80036; stroke-width: 1.0;" x1="128.5" x2="714.5" y1="1036.6953" y2="1036.6953"/><text fill="#000000" font-family="sans-serif" font-size="13" lengthAdjust="spacingAndGlyphs" textLength="218" x="140.5" y="1032.1904">io.emit('sendIceCandidate', candidate)</text><line style="stroke: #A80036; stroke-width: 1.0;" x1="123.5" x2="165.5" y1="1067.3984" y2="1067.3984"/><line style="stroke: #A80036; stroke-width: 1.0;" x1="165.5" x2="165.5" y1="1067.3984" y2="1080.3984"/><line style="stroke: #A80036; stroke-width: 1.0;" x1="124.5" x2="165.5" y1="1080.3984" y2="1080.3984"/><polygon fill="#A80036" points="134.5,1076.3984,124.5,1080.3984,134.5,1084.3984,130.5,1080.3984" style="stroke: #A80036; stroke-width: 1.0;"/><text fill="#000000" font-family="sans-serif" font-size="13" lengthAdjust="spacingAndGlyphs" textLength="193" x="130.5" y="1062.542">create send-only WebRtc-Stream</text><line style="stroke: #A80036; stroke-width: 1.0;" x1="123.5" x2="165.5" y1="1110.75" y2="1110.75"/><line style="stroke: #A80036; stroke-width: 1.0;" x1="165.5" x2="165.5" y1="1110.75" y2="1123.75"/><line style="stroke: #A80036; stroke-width: 1.0;" x1="124.5" x2="165.5" y1="1123.75" y2="1123.75"/><polygon fill="#A80036" points="134.5,1119.75,124.5,1123.75,134.5,1127.75,130.5,1123.75" style="stroke: #A80036; stroke-width: 1.0;"/><text fill="#000000" font-family="sans-serif" font-size="13" lengthAdjust="spacingAndGlyphs" textLength="98" x="130.5" y="1105.8936">create SDP-Offer</text><polygon fill="#A80036" points="703.5,1149.75,713.5,1153.75,703.5,1157.75,707.5,1153.75" style="stroke: #A80036; stroke-width: 1.0;"/><line style="stroke: #A80036; stroke-width: 1.0;" x1="123.5" x2="709.5" y1="1153.75" y2="1153.75"/><text fill="#000000" font-family="sans-serif" font-size="13" lengthAdjust="spacingAndGlyphs" textLength="185" x="130.5" y="1149.2451">io.emit('sendSdpOffer', sdpOffer)</text><polygon fill="#A80036" points="938.5,1180.1016,948.5,1184.1016,938.5,1188.1016,942.5,1184.1016" style="stroke: #A80036; stroke-width: 1.0;"/><line style="stroke: #A80036; stroke-width: 1.0;" x1="725.5" x2="944.5" y1="1184.1016" y2="1184.1016"/><text fill="#000000" font-family="sans-serif" font-size="13" lengthAdjust="spacingAndGlyphs" textLength="126" x="732.5" y="1179.5967">register Ice Candidate</text><polygon fill="#008000" points="938.5,1210.4531,948.5,1214.4531,938.5,1218.4531,942.5,1214.4531" style="stroke: #008000; stroke-width: 1.0;"/><line style="stroke: #008000; stroke-width: 1.0;" x1="123.5" x2="944.5" y1="1214.4531" y2="1214.4531"/><text fill="#000000" font-family="sans-serif" font-size="13" lengthAdjust="spacingAndGlyphs" textLength="73" x="130.5" y="1209.9482">Media Traffic</text><line style="stroke: #A80036; stroke-width: 1.0;" x1="123.5" x2="165.5" y1="1250.1563" y2="1250.1563"/><line style="stroke: #A80036; stroke-width: 1.0;" x1="165.5" x2="165.5" y1="1250.1563" y2="1263.1563"/><line style="stroke: #A80036; stroke-width: 1.0;" x1="118.5" x2="165.5" y1="1263.1563" y2="1263.1563"/><polygon fill="#A80036" points="128.5,1259.1563,118.5,1263.1563,128.5,1267.1563,124.5,1263.1563" style="stroke: #A80036; stroke-width: 1.0;"/><text fill="#000000" font-family="sans-serif" font-size="13" lengthAdjust="spacingAndGlyphs" textLength="105" x="130.5" y="1245.2998">display local video</text><line style="stroke: #A80036; stroke-width: 1.0;" x1="725.5" x2="767.5" y1="1288.5078" y2="1288.5078"/><line style="stroke: #A80036; stroke-width: 1.0;" x1="767.5" x2="767.5" y1="1288.5078" y2="1301.5078"/><line style="stroke: #A80036; stroke-width: 1.0;" x1="726.5" x2="767.5" y1="1301.5078" y2="1301.5078"/><polygon fill="#A80036" points="736.5,1297.5078,726.5,1301.5078,736.5,1305.5078,732.5,1301.5078" style="stroke: #A80036; stroke-width: 1.0;"/><text fill="#000000" font-family="sans-serif" font-size="13" lengthAdjust="spacingAndGlyphs" textLength="114" x="732.5" y="1283.6514">new chat room user</text><polygon fill="#A80036" points="460.5,1327.5078,450.5,1331.5078,460.5,1335.5078,456.5,1331.5078" style="stroke: #A80036; stroke-width: 1.0;"/><line style="stroke: #A80036; stroke-width: 1.0;" x1="454.5" x2="714.5" y1="1331.5078" y2="1331.5078"/><text fill="#000000" font-family="sans-serif" font-size="13" lengthAdjust="spacingAndGlyphs" textLength="247" x="466.5" y="1327.0029">io.emit('newParticipant', {user.id, sdpOffer})</text><line style="stroke: #A80036; stroke-width: 1.0;" x1="449.5" x2="491.5" y1="1362.2109" y2="1362.2109"/><line style="stroke: #A80036; stroke-width: 1.0;" x1="491.5" x2="491.5" y1="1362.2109" y2="1375.2109"/><line style="stroke: #A80036; stroke-width: 1.0;" x1="450.5" x2="491.5" y1="1375.2109" y2="1375.2109"/><polygon fill="#A80036" points="460.5,1371.2109,450.5,1375.2109,460.5,1379.2109,456.5,1375.2109" style="stroke: #A80036; stroke-width: 1.0;"/><text fill="#000000" font-family="sans-serif" font-size="13" lengthAdjust="spacingAndGlyphs" textLength="205" x="456.5" y="1357.3545">create receive-only WebRtc-Stream</text><line style="stroke: #A80036; stroke-width: 1.0;" x1="449.5" x2="491.5" y1="1405.5625" y2="1405.5625"/><line style="stroke: #A80036; stroke-width: 1.0;" x1="491.5" x2="491.5" y1="1405.5625" y2="1418.5625"/><line style="stroke: #A80036; stroke-width: 1.0;" x1="450.5" x2="491.5" y1="1418.5625" y2="1418.5625"/><polygon fill="#A80036" points="460.5,1414.5625,450.5,1418.5625,460.5,1422.5625,456.5,1418.5625" style="stroke: #A80036; stroke-width: 1.0;"/><text fill="#000000" font-family="sans-serif" font-size="13" lengthAdjust="spacingAndGlyphs" textLength="114" x="456.5" y="1400.7061">create SDP-Answer</text><polygon fill="#A80036" points="703.5,1444.5625,713.5,1448.5625,703.5,1452.5625,707.5,1448.5625" style="stroke: #A80036; stroke-width: 1.0;"/><line style="stroke: #A80036; stroke-width: 1.0;" x1="449.5" x2="709.5" y1="1448.5625" y2="1448.5625"/><text fill="#000000" font-family="sans-serif" font-size="13" lengthAdjust="spacingAndGlyphs" textLength="217" x="456.5" y="1444.0576">io.emit('sendSdpAnswer', sdpAnswer)</text><polygon fill="#A80036" points="938.5,1474.9141,948.5,1478.9141,938.5,1482.9141,942.5,1478.9141" style="stroke: #A80036; stroke-width: 1.0;"/><line style="stroke: #A80036; stroke-width: 1.0;" x1="720.5" x2="944.5" y1="1478.9141" y2="1478.9141"/><text fill="#000000" font-family="sans-serif" font-size="13" lengthAdjust="spacingAndGlyphs" textLength="126" x="727.5" y="1474.4092">register Ice Candidate</text><polygon fill="#008000" points="460.5,1505.2656,450.5,1509.2656,460.5,1513.2656,456.5,1509.2656" style="stroke: #008000; stroke-width: 1.0;"/><line style="stroke: #008000; stroke-width: 1.0;" x1="454.5" x2="949.5" y1="1509.2656" y2="1509.2656"/><text fill="#000000" font-family="sans-serif" font-size="13" lengthAdjust="spacingAndGlyphs" textLength="144" x="466.5" y="1504.7607">Media Traffic from User n</text><line style="stroke: #A80036; stroke-width: 1.0;" x1="449.5" x2="491.5" y1="1544.9688" y2="1544.9688"/><line style="stroke: #A80036; stroke-width: 1.0;" x1="491.5" x2="491.5" y1="1544.9688" y2="1557.9688"/><line style="stroke: #A80036; stroke-width: 1.0;" x1="444.5" x2="491.5" y1="1557.9688" y2="1557.9688"/><polygon fill="#A80036" points="454.5,1553.9688,444.5,1557.9688,454.5,1561.9688,450.5,1557.9688" style="stroke: #A80036; stroke-width: 1.0;"/><text fill="#000000" font-family="sans-serif" font-size="13" lengthAdjust="spacingAndGlyphs" textLength="127" x="456.5" y="1540.1123">display Remote Video</text><!--
@startuml


box "User( 2-n)"
actor User2
participant "Browser.js\n<<Client>>" as Browser2
end box
box "Room Creator"
actor User
participant "Browser.js\n<<Client>>" as Browser
end box
participant "Node\n<<App-Server>>" as Node
participant "Kurento\n<<Media-Server>>" as Kurento


User -> Browser: hits homepage
Browser -> Node: io.connect()
activate Browser
activate Node
Node -> Node: new User(io.id)
deactivate Browser
deactivate Node
...
User -> Browser: creates room
Browser -> Node: io.emit('createRoom', roomName)
activate Browser
activate Node
Node -> Node: new Room(roomName)
Node -> Kurento: create Mediapipeline
Node -> Node: create WebRtcEndpoint on Pipeline
Node -> Node: create Ice Candidate on Pipeline
Node -> Browser: io.emit('sendIceCandidate', candidate)
Browser -> Browser: create send-only WebRtc-Stream
Browser -> Browser: create SDP Offer
Browser -> Node: io.emit('sendSdpOffer', sdpOffer)
Node -> Kurento: register Ice Candidate
deactivate Node
Browser -[bold,#green]> Kurento: Media Traffic
Browser -> Browser: display local video
deactivate Browser

...
==Other User Hits Room==
...
User2 -> Browser2: enters URL
Browser2 -> Node: io.emit('joinRoom', roomNameFromUrl)
activate Browser2
activate Node
Node -> Node: getRoomPipeline(roomName)
Node -> Node: create WebRtcEndpoint on Pipeline
Node -> Node: create Ice Candidate on Pipeline
Node -> Browser2: io.emit('sendIceCandidate', candidate)
Browser2 -> Browser2: create send-only WebRtc-Stream
Browser2 -> Browser2: create SDP-Offer
Browser2 -> Node: io.emit('sendSdpOffer', sdpOffer)
Node -> Kurento: register Ice Candidate
Browser2 -[bold,#green]> Kurento: Media Traffic
Browser2 -> Browser2: display local video
deactivate Browser2

Node -> Node: new chat room user
Node -> Browser: io.emit('newParticipant', {user.id, sdpOffer})
activate Browser
Browser -> Browser: create receive-only WebRtc-Stream
Browser -> Browser: create SDP-Answer
Browser -> Node: io.emit('sendSdpAnswer', sdpAnswer)
Node -> Kurento: register Ice Candidate
deactivate Node
Kurento -[bold,#green]> Browser: Media Traffic from User n
Browser -> Browser: display Remote Video
deactivate Browser
...
@enduml

PlantUML version 2017.11(Wed Apr 19 18:18:59 CEST 2017)
(GPL source distribution)
Java Runtime: Java(TM) SE Runtime Environment
JVM: Java HotSpot(TM) 64-Bit Server VM
Java Version: 1.8.0_66-b18
Operating System: Windows 10
OS Version: 10.0
Default Encoding: Cp1252
Language: de
Country: DE
--></g></svg>